<svg width="1840" height="2491" viewBox="0 0 1840 2491" fill="none" xmlns="http://www.w3.org/2000/svg">
<g opacity="0.07">
<path d="M529.595 662.119C411.397 1240.69 869.772 1884.51 1553.65 2100.01C2237.52 2315.51 2887.6 2020.97 3005.8 1442.4C3124 863.831 2665.62 220.009 1981.75 4.51163C1297.87 -210.986 647.794 83.5479 529.595 662.119Z" stroke="white"/>
<path d="M425.276 629.247C307.078 1207.82 765.454 1851.64 1449.33 2067.14C2133.2 2282.64 2783.28 1988.1 2901.48 1409.53C3019.68 830.959 2561.3 187.137 1877.43 -28.3605C1193.55 -243.858 543.475 50.6756 425.276 629.247Z" stroke="white"/>
<path d="M319.302 595.853C201.103 1174.42 659.479 1818.25 1343.35 2033.74C2027.23 2249.24 2677.3 1954.71 2795.5 1376.14C2913.7 797.565 2455.33 153.743 1771.45 -61.7545C1087.58 -277.252 437.501 17.2817 319.302 595.853Z" stroke="white"/>
<path d="M214.983 562.981C96.7843 1141.55 555.16 1785.37 1239.03 2000.87C1922.91 2216.37 2572.99 1921.84 2691.18 1343.26C2809.38 764.693 2351.01 120.872 1667.13 -94.6263C983.258 -310.124 333.182 -15.5901 214.983 562.981Z" stroke="white"/>
</g>
</svg>
